<svg xmlns="http://www.w3.org/2000/svg" viewBox="0 0 507.86 167.82"><defs><style>.cls-1{fill:#fff;}</style></defs><g id="Layer_2" data-name="Layer 2"><g id="Layer_1-2" data-name="Layer 1"><polygon class="cls-1" points="251.16 117.34 244.66 117.34 244.66 111.68 241.31 111.68 241.31 126.87 244.66 126.87 244.66 120.3 251.16 120.3 251.16 126.87 254.51 126.87 254.51 111.68 251.16 111.68 251.16 117.34"/><polygon class="cls-1" points="270.5 120.69 277.08 120.69 277.08 117.6 270.5 117.6 270.5 114.77 277.47 114.77 277.47 111.68 267.15 111.68 267.15 126.87 277.85 126.87 277.85 123.78 270.5 123.78 270.5 120.69"/><polygon class="cls-1" points="293.44 111.68 290.09 111.68 290.09 126.87 299.64 126.87 299.64 123.78 293.44 123.78 293.44 111.68"/><rect class="cls-1" x="310.87" y="111.68" width="3.35" height="15.19"/><path class="cls-1" d="M333.64,124.17c-2.42,0-4.29-2.06-4.29-4.9s1.87-4.89,4.4-4.89a3.56,3.56,0,0,1,2.87,1.25l2.58-2.11a6.53,6.53,0,0,0-5.13-2.23c-4.74,0-8.19,3.11-8.19,8s3.45,8,8.19,8a6.63,6.63,0,0,0,5.49-2.64l-2.79-2.08A3.62,3.62,0,0,1,333.64,124.17Z"/><path class="cls-1" d="M358.19,111.29c-4.74,0-8.19,3.11-8.19,8s3.45,8,8.19,8,8.2-3.12,8.2-8S362.93,111.29,358.19,111.29Zm0,12.88a4.9,4.9,0,1,1,4.72-4.9A4.59,4.59,0,0,1,358.19,124.17Z"/><path class="cls-1" d="M383.73,111.68h-5.65v15.19h3.35V121h2.45c3.19,0,5.62-1.1,5.62-4.66S386.88,111.68,383.73,111.68Zm-.07,6.44h-2.23v-3.61h1.72c1.29,0,2.87.22,2.87,1.78S384.84,118.12,383.66,118.12Z"/><polygon class="cls-1" points="399.63 114.64 403.96 114.64 403.96 126.87 407.31 126.87 407.31 114.64 411.65 114.64 411.65 111.68 399.63 111.68 399.63 114.64"/><polygon class="cls-1" points="426.24 120.69 432.83 120.69 432.83 117.6 426.24 117.6 426.24 114.77 433.22 114.77 433.22 111.68 422.89 111.68 422.89 126.87 433.6 126.87 433.6 123.78 426.24 123.78 426.24 120.69"/><path class="cls-1" d="M457.32,116.29c0-3.54-2.62-4.61-5.73-4.61h-5.88v15.19h3.35V120.8h1.65l3.17,6.07h4L454,120.46A3.92,3.92,0,0,0,457.32,116.29ZM451,118h-2v-3.46h2.19c1.22,0,2.59.24,2.59,1.76S452.25,118,451,118Z"/><path class="cls-1" d="M471.87,116c0-1.14,1.31-1.57,2.25-1.57a3.24,3.24,0,0,1,2.43,1l2.29-2.51a6.84,6.84,0,0,0-4.65-1.59c-3,0-5.8,1.7-5.8,4.94,0,5.06,7.13,3.56,7.13,6.35,0,1.07-1.23,1.59-2.32,1.59a3.74,3.74,0,0,1-2.92-1.44l-2.38,2.62a7.22,7.22,0,0,0,5.11,1.91c3.13,0,5.85-1.61,5.85-5C478.86,116.94,471.87,118.72,471.87,116Z"/><path class="cls-1" d="M144.26,65.66l3.48-3.49-3.48-3.48-8.15-8.15L90.44,4.87,87,8.35l48.92,48.92c0,.38,0,.76,0,1.14h-.1a3.28,3.28,0,0,0-3.28,3.28v8.79L87,116l3.48,3.48,42.1-42.09Z"/><path class="cls-1" d="M145.66,57.3l3.48,3.48,3.48-3.48L162,47.93,206.44,3.48,203,0,161.44,41.51c-2.08-20-7.18-35.33-12.49-35.33s-10.19,15.34-12.17,35.29L95.32,0,91.84,3.48,136.26,47.9Z"/><path class="cls-1" d="M165.8,61.69a3.28,3.28,0,0,0-3.29-3.28h-.1c0-.38,0-.75,0-1.13L211.31,8.35l-3.48-3.48L162.15,50.55,154,58.69l-3.48,3.48L154,65.66l11.73,11.72,42.09,42.09,3.48-3.48L165.8,70.48Z"/><rect class="cls-1" x="140.66" y="146.91" width="2.68" height="20.91"/><path class="cls-1" d="M203,124.35l3.48-3.48L164.75,79.18,152.62,67.05l-3.48-3.48-3.48,3.48L133.53,79.18,91.84,120.87l3.48,3.48L137,82.69a51.74,51.74,0,0,0,4,14.5h0l0,.06c.19.39.39.77.59,1.14a27.78,27.78,0,0,1,3,10.19l1.17,26.85h-9.07a.78.78,0,0,0-.78.78v5.12a.78.78,0,0,0,.78.78H146l.6,13.83s0,0,0,.08H144v2.7h5.52v0a2.82,2.82,0,0,0,2.16-2.74l.6-13.83h9.35a.78.78,0,0,0,.78-.78V136.2a.78.78,0,0,0-.78-.78h-9.06l1.14-26.12a5.64,5.64,0,0,0,.07-.72c.24-5.52,3.6-11.4,3.6-11.4h0a51.92,51.92,0,0,0,3.94-14.49Z"/><path class="cls-1" d="M226.66,45.3V75c0,8.76,10.15,10.06,16.21,10.06h52.5a6.9,6.9,0,0,0-.72-3C294,81,292.8,80.43,291,80.43H246.83c-5.14,0-8.89-.6-11.15-1.8-2.08-1.1-3.1-2.31-3.1-3.71V45.52c0-1.45,1-2.68,3.1-3.75,2.26-1.17,6-1.77,11.15-1.77h44.06c1.81,0,3.06-.53,3.69-1.6a6.66,6.66,0,0,0,.8-3.16H242.87C236.81,35.24,226.66,36.55,226.66,45.3Z"/><path class="cls-1" d="M291,91.4c1.83,0,3.07-.57,3.67-1.68a6.7,6.7,0,0,0,.71-2.74H242.87c-11.55,0-18.18-4.38-18.18-12V45.3c0-7.64,6.63-12,18.18-12h52.48a6.35,6.35,0,0,0-.76-2.63c-.64-1.06-1.89-1.6-3.7-1.6H246.47c-18.46,0-27.82,5.54-27.82,16.48v29.4c0,10.94,9.36,16.48,27.82,16.48Z"/><path class="cls-1" d="M455.05,85h52.81a6.83,6.83,0,0,0-.73-3c-.61-1.08-1.84-1.63-3.66-1.63H459.05c-5.14,0-8.87-.6-11.1-1.8-2.06-1.1-3.06-2.31-3.06-3.71V33.6c0-2.5-1.14-3.58-2.09-4.05a10.48,10.48,0,0,0-4-.81V75C438.84,83.71,449,85,455.05,85Z"/><path class="cls-1" d="M436.88,75V28.74a10.05,10.05,0,0,0-3.92.81c-.95.47-2.09,1.54-2.09,4.05V74.92c0,10.94,9.36,16.48,27.81,16.48h44.79c1.83,0,3.06-.57,3.67-1.68a6.77,6.77,0,0,0,.71-2.74h-52.8C443.5,87,436.88,82.6,436.88,75Z"/><path class="cls-1" d="M8.36,45.3V59.79H76.27a6.78,6.78,0,0,0-.79-3c-.64-1.06-1.88-1.6-3.7-1.6H13.94V45.52c0-1.45,1-2.68,3.09-3.75,2.26-1.17,6-1.77,11.15-1.77H71.87c1.76,0,3-.53,3.61-1.6a6.78,6.78,0,0,0,.79-3.16H24.57C18.51,35.24,8.36,36.55,8.36,45.3Z"/><path class="cls-1" d="M8.36,75C8.36,83.71,18.51,85,24.57,85H76a6.6,6.6,0,0,0-.78-3c-.64-1.06-1.89-1.6-3.7-1.6H28.18c-5.13,0-8.88-.6-11.14-1.8-2.09-1.1-3.1-2.31-3.1-3.71V66.16H71.78c1.82,0,3.06-.54,3.7-1.6a6.41,6.41,0,0,0,.78-2.8H8.36Z"/><path class="cls-1" d="M6.39,75V45.3c0-7.64,6.63-12,18.18-12H76.24a6.06,6.06,0,0,0-.76-2.63c-.64-1.06-1.85-1.6-3.61-1.6H27.82C9.36,29,0,34.58,0,45.52v29.4C0,85.86,9.36,91.4,27.82,91.4H71.51c1.82,0,3.07-.56,3.71-1.65A6.67,6.67,0,0,0,76,87H24.57C13,87,6.39,82.6,6.39,75Z"/><path class="cls-1" d="M333.19,45.3V59.79h67.9a6.65,6.65,0,0,0-.78-3c-.64-1.06-1.89-1.6-3.7-1.6H338.76V45.52c0-1.45,1-2.68,3.1-3.75,2.26-1.17,6-1.77,11.15-1.77H396.7c1.75,0,3-.53,3.61-1.6a6.78,6.78,0,0,0,.79-3.16H349.39C343.34,35.24,333.19,36.55,333.19,45.3Z"/><path class="cls-1" d="M400.81,87H349.39c-11.55,0-18.17-4.38-18.17-12V45.3c0-7.64,6.62-12,18.17-12h51.68a6.06,6.06,0,0,0-.76-2.63c-.64-1.06-1.86-1.6-3.61-1.6H352.64c-18.45,0-27.81,5.54-27.81,16.48v29.4c0,10.94,9.36,16.48,27.81,16.48h43.7c1.82,0,3.06-.56,3.7-1.65A6.38,6.38,0,0,0,400.81,87Z"/><path class="cls-1" d="M333.19,75c0,8.76,10.15,10.06,16.2,10.06h51.43a6.6,6.6,0,0,0-.78-3c-.65-1.06-1.89-1.6-3.7-1.6H353c-5.14,0-8.89-.6-11.15-1.8-2.08-1.1-3.1-2.31-3.1-3.71V66.16h57.85c1.81,0,3.06-.54,3.7-1.6a6.28,6.28,0,0,0,.77-2.8H333.19Z"/></g></g></svg>