<svg id="helicopter_silhouette" data-name="helicopter silhouette" xmlns="http://www.w3.org/2000/svg" width="605.389" height="817.046" viewBox="0 0 605.389 817.046">
  <path id="Path_100" data-name="Path 100" d="M7732.914,3330.711l16.949-16.948-16.949-16.945-39.713-39.708L7470.9,3034.8l-16.947,16.947,238.168,238.167c-.037,1.846-.076,3.686-.1,5.536h-.5a15.978,15.978,0,0,0-15.977,15.978v42.767l-221.592,221.592,16.947,16.95,204.936-204.939Z" transform="translate(-7453.949 -3011.068)"/>
  <path id="Path_101" data-name="Path 101" d="M7720.842,3308.9l16.945,16.947,16.947-16.947,45.637-45.637,216.383-216.388-16.949-16.947L7797.693,3232.04c-10.115-97.194-34.939-172.029-60.834-172.029-25.877,0-49.592,74.7-59.211,171.8L7475.77,3029.924l-16.947,16.947,216.268,216.273Z" transform="translate(-7435.1 -3029.924)"/>
  <path id="Path_102" data-name="Path 102" d="M7591.84,3311.426a15.985,15.985,0,0,0-15.982-15.978h-.5c-.025-1.851-.072-3.685-.1-5.525l238.18-238.178-16.945-16.947-222.379,222.379-39.641,39.641-16.951,16.945,16.947,16.948,57.078,57.084,204.939,204.939,16.951-16.95-221.59-221.592Z" transform="translate(-7208.041 -3011.068)"/>
  <g id="Group_108" data-name="Group 108" transform="translate(23.727 309.478)">
    <rect id="Rectangle_19" data-name="Rectangle 19" width="13.038" height="101.823" transform="translate(237.691 405.745)"/>
    <path id="Path_103" data-name="Path 103" d="M7999.8,3389.405l16.949-16.947-202.977-202.974-59.043-59.046-16.947-16.948-16.937,16.948-59.053,59.046-202.971,202.974,16.943,16.947,202.822-202.827c3.918,26.587,10.109,51.717,19.23,70.582l-.029-.01.156.279c.928,1.908,1.883,3.759,2.875,5.531,4.785,9.7,13.668,30.115,14.521,49.653l5.693,130.7h-44.129a3.808,3.808,0,0,0-3.809,3.811v24.884a3.8,3.8,0,0,0,3.809,3.812h45.543l2.932,67.319c0,.149.043.286.051.432h-12.588v13.15H7739.7v-.214c5.723-1.027,10.193-6.51,10.5-13.368l2.928-67.319h45.543a3.81,3.81,0,0,0,3.811-3.812v-24.884a3.814,3.814,0,0,0-3.811-3.811h-44.129l5.539-127.166a25.958,25.958,0,0,0,.357-3.531c1.172-26.855,17.553-55.468,17.553-55.468l-.139.049c9.125-18.856,15.291-43.986,19.18-70.573Z" transform="translate(-7458.824 -3093.49)"/>
  </g>
</svg>
